<?xml version="1.0" encoding="utf-8"?>
<!-- Generator: Adobe Illustrator 16.0.0, SVG Export Plug-In . SVG Version: 6.00 Build 0)  -->
<!DOCTYPE svg PUBLIC "-//W3C//DTD SVG 1.0//EN" "http://www.w3.org/TR/2001/REC-SVG-20010904/DTD/svg10.dtd">
<svg version="1.0" id="Layer_1" xmlns="http://www.w3.org/2000/svg" xmlns:xlink="http://www.w3.org/1999/xlink" x="0px" y="0px"
	 width="800px" height="800px" viewBox="0 0 800 800" enable-background="new 0 0 800 800" xml:space="preserve">
<g>
	<path fill-rule="evenodd" clip-rule="evenodd" fill="#4586C7" d="M642.68,332.563l-8.544,25.114h-16.39l16.065-41.998h17.737
		l16.065,41.998h-16.386L642.68,332.563z M621.78,327.769V315.68h-40.558v12.089h11.894v29.909h16.771v-29.909H621.78z
		 M560.314,332.563l-8.545,25.114h-16.389l16.061-41.998h17.742l16.065,41.998h-16.394L560.314,332.563z M539.407,327.769V315.68
		h-40.556v12.089h11.892v29.909h16.772v-29.909H539.407z"/>
	<path fill-rule="evenodd" clip-rule="evenodd" fill="#4586C7" d="M768.908,420.67v-17.695l13.947-24.298h-8.653l-5.063,10.758
		c-1.425,3.045-2.594,5.659-3.63,8.34h-0.128c-1.154-2.845-2.234-5.233-3.662-8.319l-4.999-10.778h-8.773l13.284,24.516v17.478
		H768.908z M743.93,413.381c-2.021,0.914-5.263,1.528-8.374,1.528c-9.229,0-14.616-5.869-14.616-15.118
		c0-10.094,6.155-15.447,14.722-15.447c3.434,0,6.235,0.759,8.185,1.644l1.677-6.105c-1.562-0.841-5.119-1.861-10.182-1.861
		c-12.835,0-22.485,8.341-22.485,22.15c0,12.783,8.122,21.165,21.444,21.165c5.083,0,9.076-0.995,10.897-1.91L743.93,413.381z
		 M680.013,420.67v-15.021c0-6.898-0.103-12.443-0.403-17.895l0.192-0.045c2.065,4.758,4.807,9.905,7.528,14.487l10.965,18.474
		h7.948l0.005-41.993h-7.097v14.65c0,6.418,0.141,11.829,0.682,17.406l-0.146,0.046c-1.939-4.563-4.37-9.451-7.155-14.074
		l-10.854-18.028h-8.757v41.993H680.013z M642.97,403.009l3.249-10.374c0.736-2.507,1.385-5.413,1.993-7.872h0.136
		c0.634,2.426,1.329,5.295,2.129,7.893l3.314,10.354H642.97z M655.055,408.802l3.804,11.868h8.235l-13.647-41.993h-9.757
		L630.21,420.67h7.925l3.586-11.868H655.055z M613.196,420.67h7.676v-35.547h12.107v-6.446h-31.777v6.446h11.994V420.67z
		 M580.519,420.67h24.941v-6.438h-17.274v-35.556h-7.667V420.67z M538.975,378.677v24.028c0,13.209,6.315,18.662,16.001,18.662
		c10.15,0,16.802-5.766,16.802-18.704v-23.986h-7.669v24.486c0,8.234-3.326,12.024-8.854,12.024c-5.202,0-8.604-3.82-8.604-12.024
		v-24.486H538.975z M504.843,418.659c2.294,1.396,6.904,2.677,11.351,2.677c10.839,0,15.925-5.866,15.925-12.628
		c0-6.035-3.51-9.7-10.794-12.482c-5.614-2.14-8.04-3.656-8.04-6.873c0-2.475,2.069-5.063,6.936-5.063
		c3.946,0,6.876,1.197,8.389,1.998l1.842-6.19c-2.193-1.114-5.527-2.077-10.07-2.077c-9.112,0-14.864,5.186-14.864,12.057
		c0,6.026,4.435,9.742,11.374,12.205c5.304,1.927,7.437,3.801,7.437,6.968c0,3.438-2.745,5.733-7.633,5.733
		c-3.906,0-7.675-1.251-10.145-2.68L504.843,418.659z M471.649,420.67v-15.021c0-6.898-0.104-12.443-0.4-17.895l0.195-0.045
		c2.065,4.758,4.808,9.901,7.528,14.487l10.963,18.474h7.944v-41.993h-7.092v14.65c0,6.414,0.147,11.829,0.684,17.406l-0.14,0.042
		c-1.94-4.559-4.379-9.447-7.156-14.07l-10.851-18.028h-8.769v41.993H471.649z M438.15,415.222c-7.332,0-11.618-7.063-11.599-15.415
		c-0.012-8.368,4.026-15.679,11.679-15.679s11.59,7.487,11.59,15.408c0,8.787-4.194,15.686-11.605,15.686H438.15z M437.954,421.367
		c11.502,0,20.027-8.049,20.027-22.122c0-12.003-7.225-21.252-19.472-21.252c-11.854,0-19.995,9.102-19.995,22.002
		c0,12.295,7.509,21.372,19.372,21.372H437.954z M414.689,413.381c-2.025,0.914-5.268,1.528-8.373,1.528
		c-9.227,0-14.616-5.869-14.616-15.122c0-10.09,6.155-15.443,14.721-15.443c3.43,0,6.234,0.759,8.184,1.64l1.678-6.102
		c-1.561-0.841-5.123-1.861-10.183-1.861c-12.835,0-22.481,8.341-22.481,22.15c0,12.783,8.118,21.165,21.441,21.165
		c5.083,0,9.077-0.995,10.898-1.91L414.689,413.381z"/>
	<path fill-rule="evenodd" clip-rule="evenodd" fill="#4586C7" d="M532.035,447.781c0.771-0.195,2.317-0.38,4.727-0.38
		c4.927,0.016,8.12,2.142,8.12,6.688c0,4.138-3.186,6.859-8.349,6.859h-4.498V447.781z M524.482,483.658h7.553v-17.131h3.834
		c4.322,0.105,6.299,1.867,7.492,7.297c1.168,5.179,2.169,8.617,2.802,9.834h7.824c-0.837-1.624-1.973-6.404-3.286-11.614
		c-1.041-4.05-2.794-6.925-5.812-8.068v-0.172c3.923-1.394,7.572-5.048,7.572-10.419c0-3.577-1.305-6.451-3.586-8.364
		c-2.817-2.346-7.66-3.354-12.855-3.354c-5.199,0-8.645,0.368-11.538,0.889V483.658z M458.218,481.649
		c2.297,1.4,6.907,2.673,11.351,2.673c10.841,0,15.933-5.863,15.933-12.622c0-6.032-3.515-9.702-10.802-12.487
		c-5.612-2.138-8.037-3.65-8.037-6.873c0-2.469,2.064-5.054,6.936-5.054c3.946,0,6.872,1.192,8.389,1.993l1.841-6.191
		c-2.193-1.109-5.526-2.078-10.073-2.078c-9.109,0-14.86,5.184-14.86,12.055c0,6.027,4.435,9.741,11.371,12.207
		c5.307,1.93,7.432,3.798,7.432,6.965c0,3.442-2.742,5.735-7.632,5.735c-3.906,0-7.669-1.246-10.146-2.678L458.218,481.649z
		 M515.897,458.764h-15.829v-10.781h16.773v-6.315h-24.449v41.999h25.37v-6.315h-17.694v-12.318h15.829V458.764z M578.601,483.658
		l14.516-41.991h-8.164l-6.123,19.21c-1.626,5.099-3.158,10.23-4.275,15.185h-0.127c-1.097-5.082-2.522-9.988-4.115-15.297
		l-5.73-19.098h-8.369l13.588,41.991H578.601z M597.632,483.658h7.676v-41.991h-7.676V483.658z M642.978,476.374
		c-2.029,0.913-5.271,1.521-8.374,1.521c-9.229,0-14.623-5.866-14.623-15.116c0-10.094,6.163-15.444,14.728-15.444
		c3.427,0,6.228,0.76,8.18,1.641l1.675-6.107c-1.558-0.84-5.116-1.857-10.175-1.857c-12.839,0-22.488,8.341-22.488,22.149
		c0,12.791,8.12,21.163,21.448,21.163c5.082,0,9.081-0.992,10.894-1.905L642.978,476.374z M674.227,458.764h-15.833v-10.781h16.777
		v-6.315h-24.445v41.999h25.365v-6.315h-17.697v-12.318h15.833V458.764z M680.975,481.649c2.296,1.4,6.907,2.673,11.35,2.673
		c10.838,0,15.925-5.863,15.925-12.622c0-6.032-3.51-9.702-10.798-12.479c-5.607-2.146-8.033-3.658-8.033-6.881
		c0-2.469,2.062-5.054,6.933-5.054c3.947,0,6.876,1.192,8.389,1.993l1.842-6.191c-2.194-1.109-5.527-2.078-10.071-2.078
		c-9.112,0-14.863,5.184-14.863,12.055c0,6.027,4.435,9.741,11.37,12.207c5.307,1.93,7.44,3.798,7.44,6.965
		c0,3.442-2.745,5.735-7.633,5.735c-3.909,0-7.677-1.246-10.145-2.678L680.975,481.649z"/>
	<rect x="328.041" y="315.678" fill-rule="evenodd" clip-rule="evenodd" fill="#4586C7" width="7.668" height="167.985"/>
	<g>
		<defs>
			<path id="SVGID_1_" d="M55.758,460.557c-10.344,0-14.834-6.035-15.471-14.607c0.718,9.637,3.444,23.133,14.868,30.321
				c2.381,1.504,5.149,2.761,8.365,3.682c1.903,0.544,3.968,0.972,6.197,1.265c7.38-2.678,13.774-7.06,23.385-22.549
				c-2.534-2.289-11.817-20.579-12.755-22.849C77.808,450.903,66.742,460.557,55.758,460.557"/>
		</defs>
		<clipPath id="SVGID_2_">
			<use xlink:href="#SVGID_1_"  overflow="visible"/>
		</clipPath>
		
			<linearGradient id="SVGID_3_" gradientUnits="userSpaceOnUse" x1="87.2095" y1="810.1914" x2="91.3081" y2="810.1914" gradientTransform="matrix(16.6481 -14.8239 -14.8239 -16.6481 10586.834 15273.4121)">
			<stop  offset="0" style="stop-color:#E63B80"/>
			<stop  offset="1" style="stop-color:#6F4E98"/>
		</linearGradient>
		<polygon clip-path="url(#SVGID_2_)" fill="url(#SVGID_3_)" points="17.738,455.898 69.746,409.589 115.652,461.142 
			63.645,507.448 		"/>
	</g>
	<g>
		<defs>
			<path id="SVGID_4_" d="M91.07,382.578c-7.364,7.373-13.287,18.453-15.197,29.392c-0.074,1.173-0.136,2.341-0.16,3.53
				c-0.008,0.552-0.02,1.103-0.02,1.655c0,4.075,0.302,8.07,0.893,11.92c0.578,3.786,1.931,9.406,4.484,15.602
				c0.934,2.276,2.021,4.618,3.304,6.987c1.455,2.689,3.15,5.403,5.109,8.044c2.104,2.69,4.431,5.184,6.964,7.469
				c10.971,9.887,25.913,15.797,43.975,15.797c5.819,0,12.288-0.388,18.497-1.589c0.016-0.008,0.032-0.008,0.04-0.008
				c1.607-0.313,3.183-0.681,4.735-1.109c-31.902-4.445-45.8-19.534-52.218-26.738c-0.743-0.825-1.443-1.705-2.123-2.61
				c-0.423-0.488-0.861-0.968-1.263-1.479c-1.114-1.409-2.127-2.923-3.043-4.499c-0.546-0.937-1.059-1.889-1.545-2.874
				c-0.632-1.272-1.193-2.609-1.709-3.962c-2.185-5.707-3.406-12.063-3.616-18.843c-0.02-0.46-0.027-0.91-0.04-1.356
				c-0.004-0.25-0.016-0.496-0.016-0.75c0-0.267,0-0.532,0.008-0.803c0.008-1.009,0.052-2.006,0.11-2.996
				c0.004-0.116,0.016-0.226,0.024-0.336c0.054-0.964,0.136-1.915,0.238-2.858c2.471-22.981,17.359-40.044,43.749-40.044
				c6.73,0,12.123,0.978,16.947,2.604c-1.152-0.456-2.307-0.898-3.476-1.305c-7.888-2.757-16.351-4.271-24.729-4.271
				C116.304,367.146,101.856,371.796,91.07,382.578"/>
		</defs>
		<clipPath id="SVGID_5_">
			<use xlink:href="#SVGID_4_"  overflow="visible"/>
		</clipPath>
		
			<linearGradient id="SVGID_6_" gradientUnits="userSpaceOnUse" x1="116.2407" y1="819.1582" x2="120.338" y2="819.1582" gradientTransform="matrix(0 27.3482 27.3482 0 -22282.8086 -2810.9021)">
			<stop  offset="0" style="stop-color:#E53D2F"/>
			<stop  offset="0.4485" style="stop-color:#E53C55"/>
			<stop  offset="1" style="stop-color:#E63B80"/>
		</linearGradient>
		<rect x="75.693" y="367.146" clip-path="url(#SVGID_5_)" fill="url(#SVGID_6_)" width="88" height="115.827"/>
	</g>
	<g>
		<defs>
			<path id="SVGID_7_" d="M17.145,326.766l0.012,101.069c0,9.629,2.095,32.414,9.455,42.104c3.763,4.93,8.643,8.533,14.078,10.826
				c4.533,1.905,9.443,2.894,14.398,2.973c2.839,0.041,5.683-0.228,8.487-0.775c1.126-0.225,2.241-0.477,3.347-0.792
				c0.963-0.272,1.92-0.589,2.866-0.945c-2.259-0.288-4.345-0.72-6.267-1.272c-3.216-0.921-5.984-2.178-8.365-3.682
				c-11.471-7.222-14.622-20.484-15.232-33.111v-72.935h28.708c5.071,0,9.177-4.106,9.177-9.229c0-5.061-4.106-9.201-9.177-9.201
				H39.923v-25.028c0-6.097-4.802-11.088-11.278-11.088C22.173,315.678,17.145,320.669,17.145,326.766"/>
		</defs>
		<clipPath id="SVGID_8_">
			<use xlink:href="#SVGID_7_"  overflow="visible"/>
		</clipPath>
		
			<linearGradient id="SVGID_9_" gradientUnits="userSpaceOnUse" x1="114.1572" y1="817.6934" x2="118.2555" y2="817.6934" gradientTransform="matrix(0 31.7478 31.7478 0 -25912.5254 -3272.4319)">
			<stop  offset="0" style="stop-color:#E53D2F"/>
			<stop  offset="0.4485" style="stop-color:#E53C55"/>
			<stop  offset="1" style="stop-color:#E63B80"/>
		</linearGradient>
		<rect x="17.145" y="315.678" clip-path="url(#SVGID_8_)" fill="url(#SVGID_9_)" width="60.664" height="168.101"/>
	</g>
	<g>
		<defs>
			<path id="SVGID_10_" d="M17.145,326.766v0.124c0,2.66,0.008,48.372,0.016,67.356c0-25.918,9.924-42.456,22.763-42.456v-25.024
				c0-6.097-4.798-11.088-11.278-11.088C22.173,315.678,17.145,320.669,17.145,326.766"/>
		</defs>
		<clipPath id="SVGID_11_">
			<use xlink:href="#SVGID_10_"  overflow="visible"/>
		</clipPath>
		
			<linearGradient id="SVGID_12_" gradientUnits="userSpaceOnUse" x1="119.8691" y1="814.5781" x2="123.9676" y2="814.5781" gradientTransform="matrix(0 18.5796 18.5796 0 -15106.0195 -1911.8481)">
			<stop  offset="0" style="stop-color:#FDCD08"/>
			<stop  offset="0.437" style="stop-color:#F2921A"/>
			<stop  offset="0.8114" style="stop-color:#EA6528"/>
			<stop  offset="1" style="stop-color:#E7542D"/>
		</linearGradient>
		<rect x="17.145" y="315.678" clip-path="url(#SVGID_11_)" fill="url(#SVGID_12_)" width="22.779" height="78.568"/>
	</g>
	<g>
		<defs>
			<path id="SVGID_13_" d="M217.162,361.045"/>
		</defs>
		<clipPath id="SVGID_14_">
			<use xlink:href="#SVGID_13_"  overflow="visible"/>
		</clipPath>
		<g clip-path="url(#SVGID_14_)">
			<defs>
				<path id="SVGID_15_" d="M217.162,361.045"/>
			</defs>
			<clipPath id="SVGID_16_">
				<use xlink:href="#SVGID_15_"  overflow="visible"/>
			</clipPath>
			
				<linearGradient id="SVGID_17_" gradientUnits="userSpaceOnUse" x1="273.2964" y1="-1566.1177" x2="273.2964" y2="-1566.1177" gradientTransform="matrix(0.138 0 0 -0.138 179.4445 144.907)">
				<stop  offset="0" style="stop-color:#95C140"/>
				<stop  offset="0.34" style="stop-color:#62C1CA"/>
				<stop  offset="0.69" style="stop-color:#809ED1"/>
				<stop  offset="1" style="stop-color:#9980B8"/>
			</linearGradient>
			<path clip-path="url(#SVGID_16_)" fill="url(#SVGID_17_)" d="M217.162,361.045L217.162,361.045z"/>
		</g>
	</g>
	<g>
		<defs>
			<path id="SVGID_18_" d="M220.203,358.021c0.004-0.01,0.009-0.014,0.013-0.018C220.212,358.008,220.207,358.012,220.203,358.021
				 M220.216,358.004l0.005-0.004L220.216,358.004z M220.221,358c0.023-0.021,0.032-0.032,0.032-0.032S220.244,357.979,220.221,358"
				/>
		</defs>
		<clipPath id="SVGID_19_">
			<use xlink:href="#SVGID_18_"  overflow="visible"/>
		</clipPath>
		
			<linearGradient id="SVGID_20_" gradientUnits="userSpaceOnUse" x1="104.4458" y1="789.7559" x2="109.4458" y2="789.7559" gradientTransform="matrix(10.4702 0 0 -10.4702 -899.522 8626.9131)">
			<stop  offset="0" style="stop-color:#95C140"/>
			<stop  offset="0.34" style="stop-color:#62C1CA"/>
			<stop  offset="0.69" style="stop-color:#809ED1"/>
			<stop  offset="1" style="stop-color:#9980B8"/>
		</linearGradient>
		<rect x="220.203" y="357.968" clip-path="url(#SVGID_19_)" fill="url(#SVGID_20_)" width="0.05" height="0.054"/>
	</g>
	<g>
		<defs>
			<path id="SVGID_21_" d="M264.911,478.195c0.024-0.008,0.046-0.021,0.066-0.028C264.939,478.183,264.911,478.195,264.911,478.195
				 M264.978,478.167c0.008-0.003,0.016-0.008,0.016-0.016C264.993,478.159,264.985,478.164,264.978,478.167 M264.993,478.151
				c0.024-0.008,0.046-0.016,0.078-0.023C265.043,478.136,265.021,478.144,264.993,478.151"/>
		</defs>
		<clipPath id="SVGID_22_">
			<use xlink:href="#SVGID_21_"  overflow="visible"/>
		</clipPath>
		
			<linearGradient id="SVGID_23_" gradientUnits="userSpaceOnUse" x1="105.4951" y1="812.8477" x2="111.4951" y2="812.8477" gradientTransform="matrix(51.2779 0 0 -51.2779 -5123.9551 42159.3594)">
			<stop  offset="0" style="stop-color:#95C140"/>
			<stop  offset="0.34" style="stop-color:#62C1CA"/>
			<stop  offset="0.69" style="stop-color:#809ED1"/>
			<stop  offset="1" style="stop-color:#9980B8"/>
		</linearGradient>
		<rect x="264.911" y="478.128" clip-path="url(#SVGID_22_)" fill="url(#SVGID_23_)" width="0.16" height="0.067"/>
	</g>
	<g>
		<defs>
			<path id="SVGID_24_" d="M259.596,447.918c0,11.482-8.025,16.781-20.425,16.781c-10.034,0-16.956-3.294-22.066-5.299
				c-8.205-3.094-14.032,2.557-14.032,8.396c0,3.922,2.77,6.553,6.02,8.281c3.144,1.681,6.608,2.971,9.996,4.051
				c6.906,2.197,14.14,2.978,21.362,2.978c4.901,0,9.836-0.325,14.639-1.357c4.484-0.969,9.64-2.549,13.147-5.655
				c0.384-0.344,0.747-0.729,1.041-1.151c2.147-3.08,2.659-7.302,2.659-10.623c0-10.798-5.445-20.052-13.629-27.8
				c-2.627-2.489-4.782-5.095-8.458-7.016C256.378,434.391,259.596,440.258,259.596,447.918"/>
		</defs>
		<clipPath id="SVGID_25_">
			<use xlink:href="#SVGID_24_"  overflow="visible"/>
		</clipPath>
		
			<linearGradient id="SVGID_26_" gradientUnits="userSpaceOnUse" x1="109.7852" y1="835.3691" x2="113.8826" y2="835.3691" gradientTransform="matrix(-20.8944 13.5515 13.5515 20.8944 -8742.5361 -18516.1836)">
			<stop  offset="0" style="stop-color:#E63B80"/>
			<stop  offset="1" style="stop-color:#6F4E98"/>
		</linearGradient>
		<polygon clip-path="url(#SVGID_25_)" fill="url(#SVGID_26_)" points="296.409,467.237 223.462,514.548 178.599,445.373 
			251.546,398.064 		"/>
	</g>
	<g>
		<defs>
			<path id="SVGID_27_" d="M158.918,481.385c0.016-0.008,0.032-0.008,0.04-0.008C158.95,481.377,158.934,481.377,158.918,481.385"/>
		</defs>
		<clipPath id="SVGID_28_">
			<use xlink:href="#SVGID_27_"  overflow="visible"/>
		</clipPath>
		
			<linearGradient id="SVGID_29_" gradientUnits="userSpaceOnUse" x1="104.4229" y1="815.1641" x2="104.4233" y2="815.1641" gradientTransform="matrix(72.0497 0 0 -72.0497 -7364.7412 59213.7422)">
			<stop  offset="0" style="stop-color:#95C140"/>
			<stop  offset="0.34" style="stop-color:#62C1CA"/>
			<stop  offset="0.69" style="stop-color:#809ED1"/>
			<stop  offset="1" style="stop-color:#9980B8"/>
		</linearGradient>
		<rect x="158.918" y="481.377" clip-path="url(#SVGID_28_)" fill="url(#SVGID_29_)" width="0.04" height="0.008"/>
	</g>
	<g>
		<defs>
			<path id="SVGID_30_" d="M215.7,362.204l0.004-0.005L215.7,362.204z"/>
		</defs>
		<clipPath id="SVGID_31_">
			<use xlink:href="#SVGID_30_"  overflow="visible"/>
		</clipPath>
		
			<linearGradient id="SVGID_32_" gradientUnits="userSpaceOnUse" x1="309.3267" y1="-2259.5762" x2="313.4378" y2="-2259.5762" gradientTransform="matrix(0.1072 0 0 -0.1072 182.3085 119.9171)">
			<stop  offset="0" style="stop-color:#95C140"/>
			<stop  offset="0.34" style="stop-color:#62C1CA"/>
			<stop  offset="0.69" style="stop-color:#809ED1"/>
			<stop  offset="1" style="stop-color:#9980B8"/>
		</linearGradient>
		<rect x="215.7" y="362.199" clip-path="url(#SVGID_31_)" fill="url(#SVGID_32_)" width="0.004" height="0.005"/>
	</g>
	<g>
		<defs>
			<path id="SVGID_33_" d="M215.704,362.199l-0.004,0.005c-0.445,0.391-0.861,0.801-1.259,1.219
				c-3.152,3.047-5.701,6.621-7.727,10.516c-1.803,3.442-3.224,7.109-4.404,10.774c-1.33,4.134-2.398,8.381-3.348,12.685
				c-3.178,14.232-5.185,28.94-11.977,41.315c-5.433,9.878-13.508,16.825-23.651,21.677c-5.968,2.624-12.507,4.353-21.086,4.353
				c-4.126,0-7.966-0.423-11.533-1.236c-8.92-2.023-16.053-6.463-21.363-12.587c0.68,0.905,1.38,1.785,2.123,2.61
				c6.418,7.204,20.315,22.293,52.218,26.738c3.121-0.848,6.117-1.939,8.851-3.341c3.119-1.604,6.07-3.434,8.865-5.443
				c4.435-3.218,8.45-6.908,12.028-10.999c5.804-6.611,10.442-14.219,13.894-22.408c1.361-3.233,2.54-6.56,3.52-9.945
				c0.548-1.856,1.048-3.738,1.513-5.623c1.495-6.006,3.09-13.788,4.38-19.877c0.024-0.114-4.578-11.779-4.9-18.919
				c-0.214-4.794,0.56-9.835,2.057-14.761c0.364-2.305,1.016-3.241,2.069-5.382c0.098-0.196,0.364-0.381,0.462-0.577
				c0.136-0.112,1.701-1.208,1.254-1.501c0-0.004,2.812-3.105,2.812-3.105C220.112,358.672,216.056,361.895,215.704,362.199"/>
		</defs>
		<clipPath id="SVGID_34_">
			<use xlink:href="#SVGID_33_"  overflow="visible"/>
		</clipPath>
		
			<linearGradient id="SVGID_35_" gradientUnits="userSpaceOnUse" x1="96.3188" y1="814.8838" x2="100.4169" y2="814.8838" gradientTransform="matrix(33.8174 -29.0651 -29.0651 -33.8174 20505.3359 30850.9004)">
			<stop  offset="0" style="stop-color:#E63B80"/>
			<stop  offset="1" style="stop-color:#6F4E98"/>
		</linearGradient>
		<polygon clip-path="url(#SVGID_34_)" fill="url(#SVGID_35_)" points="49.102,410.169 173.277,303.442 280.748,428.482 
			156.573,535.21 		"/>
	</g>
	<g>
		<defs>
			<path id="SVGID_36_" d="M121.08,354.348c-5.26,1.513-10.762,3.59-15.412,6.529c-4.521,2.864-8.721,6.206-12.443,9.995
				c-0.553,0.563-1.127,1.107-1.655,1.686c-1.927,2.117-3.696,4.385-5.287,6.786c-0.959,1.485-1.861,3.008-2.694,4.582
				c-0.004,0.009-0.008,0.013-0.012,0.017c-4.388,8.299-7.036,17.804-7.705,28.027c1.91-10.938,7.833-22.019,15.197-29.392
				c16.941-16.938,42.926-18.737,64.65-11.161c1.168,0.406,2.323,0.849,3.476,1.305c2.624,1.049,5.205,2.221,7.721,3.478
				c0.739,0.371,1.477,0.755,2.208,1.162c1.635,0.909,3.288,1.634,5.472,1.634c0.808,0,1.59-0.109,2.342-0.336
				c3.847-1.068,6.773-4.745,6.773-9.327c0-3.468-1.639-5.651-4.188-7.473c-7.918-5.703-18.287-8.063-27.803-9.276
				c-3.935-0.497-7.857-0.782-11.757-0.782C133.622,351.801,127.32,352.555,121.08,354.348"/>
		</defs>
		<clipPath id="SVGID_37_">
			<use xlink:href="#SVGID_36_"  overflow="visible"/>
		</clipPath>
		
			<linearGradient id="SVGID_38_" gradientUnits="userSpaceOnUse" x1="100.8262" y1="807.8818" x2="104.9248" y2="807.8818" gradientTransform="matrix(26.3133 0 0 -26.3133 -2577.1975 21639.9473)">
			<stop  offset="0" style="stop-color:#FDCD08"/>
			<stop  offset="0.437" style="stop-color:#F2921A"/>
			<stop  offset="0.8114" style="stop-color:#EA6528"/>
			<stop  offset="1" style="stop-color:#E7542D"/>
		</linearGradient>
		<rect x="75.873" y="351.801" clip-path="url(#SVGID_37_)" fill="url(#SVGID_38_)" width="107.839" height="60.169"/>
	</g>
	<g>
		<defs>
			<path id="SVGID_39_" d="M237.796,352.188c-5.045,0.546-10.023,1.857-14.446,4.391c-0.27,0.153-0.536,0.31-0.794,0.466
				l-1.028,0.641c-3.927,2.417-6.464,6.642-7.813,10.962c-0.86,2.766-1.315,5.713-0.573,8.561c1.151,4.438,4.861,7.73,8.664,10.296
				c6.737,4.541,14.319,7.692,21.217,11.991c-3.624-2.722-7.194-5.709-9.483-9.628c-2.292-3.911-3.12-8.94-1.095-12.999
				c1.627-3.25,4.885-5.483,8.377-6.472c3.492-0.99,7.215-0.856,10.806-0.307c4.136,0.631,8.172,1.796,12.129,3.177
				c2.007,0.7,4.052,1.467,6.184,1.442c2.545-0.021,5.061-1.255,6.635-3.258c1.581-2.005,2.191-4.739,1.623-7.222
				c-0.915-3.931-4.451-6.712-8.123-8.386c-5.267-2.389-11.121-3.135-16.885-3.601c-2.874-0.235-5.759-0.399-8.639-0.399
				C242.292,351.844,240.039,351.946,237.796,352.188"/>
		</defs>
		<clipPath id="SVGID_40_">
			<use xlink:href="#SVGID_39_"  overflow="visible"/>
		</clipPath>
		
			<linearGradient id="SVGID_41_" gradientUnits="userSpaceOnUse" x1="105.3398" y1="799.2852" x2="109.4377" y2="799.2852" gradientTransform="matrix(15.6823 0 0 -15.6823 -1437.8196 12910.2881)">
			<stop  offset="0" style="stop-color:#FDCD08"/>
			<stop  offset="0.437" style="stop-color:#F2921A"/>
			<stop  offset="0.8114" style="stop-color:#EA6528"/>
			<stop  offset="1" style="stop-color:#E7542D"/>
		</linearGradient>
		<rect x="212.399" y="351.844" clip-path="url(#SVGID_40_)" fill="url(#SVGID_41_)" width="66.368" height="47.651"/>
	</g>
	<g>
		<defs>
			<path id="SVGID_42_" d="M217.326,403.609c3.521,5.697,9.082,9.651,14.479,13.428c5.935,4.149,11.833,8.341,17.87,12.351
				c4.228,2.81,7.982,6.3,11.307,10.126c6.037,6.948,11.286,15.66,10.852,25.246c-0.074,1.721-0.282,3.442-0.782,5.103
				c-0.849,2.798-2.652,6.463-5.275,8.02c13.332-7.902,18.837-23.284,15.373-38.177c-3.356-14.428-14.935-24.22-26.441-32.533
				c-2.291-1.659-4.636-3.259-7.014-4.803c-2.371-1.549-4.795-3.001-7.24-4.419c-2.008-1.158-3.996-2.363-5.979-3.557
				c-2.795-1.677-5.583-3.374-8.287-5.192c-4.305-2.901-8.751-6.346-11.066-11.116c-1.435-2.95-1.983-6.078-1.498-9.138
				C210.318,379.855,211.184,393.691,217.326,403.609"/>
		</defs>
		<clipPath id="SVGID_43_">
			<use xlink:href="#SVGID_42_"  overflow="visible"/>
		</clipPath>
		
			<linearGradient id="SVGID_44_" gradientUnits="userSpaceOnUse" x1="114.7383" y1="813.7822" x2="118.8356" y2="813.7822" gradientTransform="matrix(16.0195 21.0784 21.0784 -16.0195 -18778.5996 10995.4922)">
			<stop  offset="0" style="stop-color:#E53D2F"/>
			<stop  offset="0.4485" style="stop-color:#E53C55"/>
			<stop  offset="1" style="stop-color:#E63B80"/>
		</linearGradient>
		<polygon clip-path="url(#SVGID_43_)" fill="url(#SVGID_44_)" points="257.411,333.155 337.092,438 237.518,513.676 157.84,408.83 
					"/>
	</g>
</g>
</svg>
